# xmcd
#
# Track frame offsets: 
#        150
#        12697
#        28236
#        42303
#        51125
#        62134
#        71113
#        83850
#        99993
#        115182
#        134718
#        144595
#        158955
#        178123
#        196206
#        202247
#        216576
#        227829
#        246790
#        262411
#        272272
#        283907
#
# Disc length: 4065 seconds
#
# Revision: 0
# Processed by: cddbd v1.5.2PL0 Copyright (c) Steve Scherf et al.
# Submitted via: ExactAudioCopy v0.99pb5
#
DISCID=670fdf16
DTITLE=Various Artist - OTB Presents Woolyhood
DYEAR=2008
DGENRE=UK-Rap
TTITLE0=Line 4 Line - Buck., Fix Dot'm, Shift
TTITLE1=Smack Wid The - Fixdot'm And Giggs
TTITLE2=Brandon Blocks - Swift And Fury
TTITLE3=Wooly Og - Buck
TTITLE4=On Da Mic - Fixdot'm
TTITLE5=For The Fam - Ske
TTITLE6=Hustler Music - Swift And Shift
TTITLE7=About Us - Buck Ft Ayak
TTITLE8=Woolyhood - Buck And Fixdot'm
TTITLE9=Psycho Riddim - Giggs And Fixdot'm
TTITLE10=Stories - Buck And Slums
TTITLE11=Day Dot - Felon, Fixdot'm, Joe Grind Buck
TTITLE12=Freestyle - Swift And Shift
TTITLE13=Soldier Riddim - Fixdot'm
TTITLE14=Freestyle - Swift
TTITLE15=Bet U Never - Y.Ske, Butch, T Boost
TTITLE16=On A Daily - Buck And Wretch 32
TTITLE17=The Game - Y.Co, Shift, Snap
TTITLE18=Hard Drive Riddim - Fixdot'm
TTITLE19=Signs Up - Buck And Swift
TTITLE20=Freestyle - Fixdot'm
TTITLE21=Why U Hating - Giggs
EXTD=
EXTT0=
EXTT1=
EXTT2=
EXTT3=
EXTT4=
EXTT5=
EXTT6=
EXTT7=
EXTT8=
EXTT9=
EXTT10=
EXTT11=
EXTT12=
EXTT13=
EXTT14=
EXTT15=
EXTT16=
EXTT17=
EXTT18=
EXTT19=
EXTT20=
EXTT21=
PLAYORDER=
